<svg xmlns="http://www.w3.org/2000/svg" width="142" height="28" fill="none"><path fill="#E13F5E" d="M0 0h141.875v28H0z"/><g fill="#fff" clip-path="url(#a)"><path fill-rule="evenodd" d="M9 18.5c0 .829.649 1.5 1.45 1.5h3.544c3.184 0 5.839-2.624 5.88-5.919.043-3.347-2.568-6.077-5.795-6.077L10.45 8C9.649 8 9 8.671 9 9.5zm1.993-1.124h.186c.802 0 1.45-.671 1.45-1.5v-.193a.184.184 0 0 0-.182-.189h-1.454a.184.184 0 0 0-.183.189v1.505c0 .105.08.188.183.188m0-4.506h4.532c.801 0 1.45-.671 1.45-1.5v-.18a.193.193 0 0 0-.19-.198h-4.52c-.802 0-1.45.672-1.45 1.5v.19c0 .105.08.188.178.188m2.357 2.251h-2.357c-.098 0-.178-.083-.183-.189v-1.5c0-.106.08-.189.183-.189h3.625c.101 0 .182.083.182.189v.188c0 .83-.649 1.501-1.45 1.501" clip-rule="evenodd"/><path d="M26 9.27h1.606l2.777 6.785h.1l2.783-6.785h1.629V18h-1.29v-6.316h-.081l-2.584 6.304h-1.043l-2.555-6.31h-.082V18H26zm13.026 8.865q-.961 0-1.664-.416a2.8 2.8 0 0 1-1.084-1.172q-.375-.762-.375-1.776 0-1.007.369-1.775.375-.768 1.049-1.195.68-.434 1.593-.434.556 0 1.079.182.521.18.937.574t.656 1.02q.246.627.246 1.511v.457h-5.209v-.955h4.553l-.592.317q0-.604-.187-1.067a1.56 1.56 0 0 0-.563-.72q-.368-.264-.92-.264-.55 0-.943.263a1.7 1.7 0 0 0-.592.698q-.205.433-.205.949v.65q0 .674.235 1.143t.65.715q.421.246.979.246.362 0 .656-.105.298-.105.515-.317.217-.21.328-.521l1.208.228q-.147.527-.516.926a2.5 2.5 0 0 1-.932.621 3.5 3.5 0 0 1-1.271.217M42.723 18v-6.55h1.213v1.077h.088q.205-.544.668-.85.468-.31 1.113-.31.657 0 1.096.31.445.306.662.85h.07q.234-.532.744-.843.51-.317 1.213-.317.89 0 1.46.563.567.555.568 1.681V18H50.34v-4.271q0-.669-.363-.961a1.32 1.32 0 0 0-.867-.3q-.622 0-.967.387-.34.382-.34.967V18h-1.277v-4.353q0-.534-.328-.856-.329-.322-.862-.322a1.25 1.25 0 0 0-.673.193q-.306.187-.493.527-.18.334-.181.774V18zm13.342.129q-.592 0-.973-.2a1.9 1.9 0 0 1-.592-.474q-.21-.27-.328-.474h-.105V18h-1.23V9.27h1.265v3.246h.07q.117-.205.323-.475.21-.27.585-.469.376-.204.979-.205.79 0 1.406.399.62.398.979 1.154.357.756.357 1.822 0 1.055-.351 1.817-.352.755-.973 1.166-.614.404-1.412.404m-.276-1.084q.57 0 .95-.305.38-.304.574-.826.2-.527.2-1.184 0-.65-.194-1.165a1.8 1.8 0 0 0-.575-.815q-.38-.3-.955-.299-.555 0-.937.287a1.74 1.74 0 0 0-.58.797q-.195.51-.194 1.195 0 .686.2 1.207.2.522.58.815.387.293.931.293m6.756 1.09q-.96 0-1.664-.416a2.8 2.8 0 0 1-1.084-1.172q-.375-.762-.375-1.776 0-1.007.37-1.775.375-.768 1.048-1.195.68-.434 1.594-.434.556 0 1.078.182.522.18.938.574t.656 1.02q.246.627.246 1.511v.457h-5.21v-.955h4.554l-.592.317q0-.604-.188-1.067a1.56 1.56 0 0 0-.562-.72q-.37-.264-.92-.264-.551 0-.943.263a1.7 1.7 0 0 0-.592.698q-.205.433-.205.949v.65q0 .674.234 1.143t.65.715q.423.246.979.246.362 0 .656-.105.3-.105.516-.317.216-.21.328-.521l1.207.228q-.147.527-.516.926a2.5 2.5 0 0 1-.931.621 3.5 3.5 0 0 1-1.272.217M66.243 18v-6.55h1.224v1.048h.07q.182-.527.633-.832.458-.31 1.031-.31.118 0 .276.011.164.006.264.018v1.219a3.265 3.265 0 0 0-.668-.07q-.451 0-.809.193-.351.187-.557.521-.198.329-.199.762V18zm9.533.135q-.92 0-1.612-.422a2.85 2.85 0 0 1-1.066-1.184q-.375-.761-.375-1.77 0-1.019.375-1.78.382-.768 1.066-1.19.691-.422 1.612-.422.925 0 1.611.422t1.067 1.19q.38.761.38 1.78 0 1.009-.38 1.77-.381.762-1.067 1.184t-1.611.422m0-1.073q.603 0 .996-.316t.58-.838q.193-.527.193-1.148 0-.633-.193-1.16a1.85 1.85 0 0 0-.58-.844q-.393-.316-.996-.316-.599 0-.99.316-.388.316-.58.844a3.4 3.4 0 0 0-.194 1.16q0 .621.193 1.148.195.522.58.838.393.317.99.317m7.096-5.613v1.026h-3.698v-1.026zM80.182 18v-7.312q0-.61.27-1.014.275-.41.714-.61.446-.204.956-.205.392 0 .667.065.276.064.405.111l-.305 1.031a3 3 0 0 0-.228-.064 1.4 1.4 0 0 0-.34-.035q-.464 0-.668.234-.205.228-.205.668V18zm9.094 0H87.12v-1.154h2.08q.995 0 1.658-.37.661-.375.99-1.095.328-.727.328-1.758 0-1.025-.328-1.74a2.3 2.3 0 0 0-.967-1.084q-.645-.375-1.6-.375h-2.208V9.27h2.29q1.283 0 2.204.521a3.48 3.48 0 0 1 1.412 1.5q.492.973.492 2.332 0 1.366-.498 2.344a3.5 3.5 0 0 1-1.43 1.506q-.937.527-2.267.527m-1.512-8.73V18h-1.318V9.27zM95.92 18l-1.922-6.55h1.313l1.283 4.81h.07l1.284-4.81h1.318l1.271 4.792h.065l1.277-4.793h1.313L101.27 18h-1.295l-1.336-4.723h-.088L97.215 18zm9.885.14q-.621 0-1.125-.228a1.9 1.9 0 0 1-.797-.68q-.293-.444-.293-1.084 0-.555.211-.908.217-.357.58-.568t.809-.317q.445-.105.914-.164.592-.065.955-.11.363-.048.527-.147.17-.105.17-.334v-.03q0-.556-.316-.861-.31-.305-.926-.305-.639 0-1.014.281a1.47 1.47 0 0 0-.509.627l-1.202-.275q.218-.598.627-.96.416-.37.95-.54.538-.17 1.125-.17.392 0 .832.094.44.088.826.334.393.24.638.691.247.452.247 1.166V18h-1.248v-.896h-.047q-.118.24-.369.48a2 2 0 0 1-.633.398 2.5 2.5 0 0 1-.932.159m.275-1.019q.534 0 .909-.205a1.5 1.5 0 0 0 .574-.55 1.4 1.4 0 0 0 .199-.721v-.85a.7.7 0 0 1-.264.123 4 4 0 0 1-.439.1l-.481.076q-.234.03-.392.047-.37.053-.674.164-.304.105-.492.316-.182.206-.182.545 0 .474.352.715.351.24.89.24m4.178.879v-6.55h1.225v1.048h.07q.181-.527.633-.832.457-.31 1.031-.31.117 0 .276.011.164.006.263.018v1.219a3.27 3.27 0 0 0-.668-.07q-.451 0-.808.193a1.43 1.43 0 0 0-.557.521 1.44 1.44 0 0 0-.199.762V18zm9.903-6.55L117.793 18h-1.371l-2.373-6.55h1.365l1.664 5.05h.071l1.652-5.05zm3.287 6.685q-.962 0-1.664-.416a2.8 2.8 0 0 1-1.084-1.172q-.375-.762-.375-1.776 0-1.007.369-1.775.374-.768 1.049-1.195.68-.434 1.593-.434.557 0 1.078.182.522.18.938.574t.656 1.02q.246.627.246 1.511v.457h-5.209v-.955h4.553l-.592.317q0-.604-.187-1.067a1.56 1.56 0 0 0-.563-.72q-.37-.264-.92-.264t-.943.263a1.7 1.7 0 0 0-.592.698q-.205.433-.205.949v.65q0 .674.234 1.143t.651.715q.422.246.978.246.364 0 .657-.105a1.343 1.343 0 0 0 .843-.838l1.207.228q-.146.527-.515.926a2.5 2.5 0 0 1-.932.621 3.5 3.5 0 0 1-1.271.217m8.595-5.08-1.154.199a1.44 1.44 0 0 0-.416-.604q-.299-.275-.896-.275-.54 0-.903.246-.357.24-.357.615 0 .33.24.534.246.204.779.328l1.049.234q.897.206 1.342.645t.445 1.125q0 .591-.34 1.054-.34.457-.943.721-.603.258-1.394.258-1.103 0-1.793-.475-.692-.475-.85-1.336l1.225-.187q.117.48.474.726.363.246.938.246.621 0 .996-.263.381-.264.381-.639 0-.62-.926-.838l-1.108-.246q-.92-.21-1.359-.662-.434-.458-.434-1.149 0-.58.323-1.019.327-.44.896-.68a3.3 3.3 0 0 1 1.307-.246q1.066 0 1.67.463.61.463.808 1.225"/></g><defs><clipPath id="a"><path fill="#fff" d="M9 4h123.875v20H9z"/></clipPath></defs></svg>