<svg xmlns="http://www.w3.org/2000/svg" width="107" height="20" fill="none"><rect width="106.063" height="20" fill="#E13F5E" rx="3"/><g fill="#fff" clip-path="url(#a)"><path fill-rule="evenodd" d="M6 13.75c0 .69.54 1.25 1.208 1.25h2.954c2.653 0 4.865-2.187 4.9-4.932.036-2.79-2.14-5.064-4.83-5.064L7.209 5C6.541 5 6 5.56 6 6.25zm1.66-.937h.156c.668 0 1.208-.559 1.208-1.25v-.16a.154.154 0 0 0-.152-.158H7.661a.154.154 0 0 0-.152.157v1.254c0 .088.067.157.152.157m0-3.754h3.778c.667 0 1.208-.56 1.208-1.25v-.15a.16.16 0 0 0-.16-.165H8.722c-.668 0-1.209.559-1.209 1.25v.157c0 .088.067.158.149.158m1.965 1.875H7.661c-.082 0-.149-.07-.152-.157v-1.25c0-.088.067-.158.152-.158h3.02c.085 0 .152.07.152.158v.157c0 .69-.54 1.25-1.208 1.25" clip-rule="evenodd"/><path d="M19.907 6.452h1.204l2.083 5.089h.074l2.088-5.089h1.221V13h-.966V8.263h-.062l-1.938 4.728h-.782l-1.916-4.733h-.062V13h-.944zm9.769 6.65q-.72 0-1.248-.313a2.1 2.1 0 0 1-.813-.879q-.282-.571-.282-1.331 0-.756.277-1.332.282-.576.787-.896.51-.326 1.195-.326.417 0 .809.137.39.136.703.43.312.295.492.765.185.47.185 1.134v.343h-3.907v-.717h3.414l-.444.237q0-.452-.14-.8a1.17 1.17 0 0 0-.422-.54q-.277-.198-.69-.198a1.24 1.24 0 0 0-.707.198 1.3 1.3 0 0 0-.444.523 1.64 1.64 0 0 0-.154.712v.488q0 .505.176.857.176.351.488.536.315.184.733.184.273 0 .493-.079.224-.078.386-.237.163-.158.246-.391l.906.171a1.66 1.66 0 0 1-.387.695q-.277.298-.699.465a2.6 2.6 0 0 1-.953.163M32.449 13V8.087h.91v.809h.065a1.28 1.28 0 0 1 .501-.638q.352-.233.835-.233.492 0 .822.233.334.229.496.638h.053q.175-.4.558-.633a1.7 1.7 0 0 1 .91-.238q.668 0 1.094.422.426.418.426 1.262V13h-.958V9.796q0-.501-.272-.72a1 1 0 0 0-.65-.224q-.467 0-.725.29-.255.285-.255.725V13H35.3V9.735q0-.4-.247-.642-.246-.24-.646-.241a.94.94 0 0 0-.505.145 1.05 1.05 0 0 0-.369.395q-.136.25-.136.58V13zm10.006.097q-.444 0-.73-.15a1.5 1.5 0 0 1-.443-.356 3 3 0 0 1-.246-.356h-.08V13h-.923V6.452h.95v2.435h.053a3 3 0 0 1 .241-.356q.159-.202.44-.352.281-.153.733-.154.594 0 1.055.3.465.298.734.865t.268 1.367q0 .79-.264 1.362-.263.567-.729.874-.461.304-1.06.304m-.207-.813q.427 0 .712-.229.286-.228.43-.62.15-.395.15-.887 0-.488-.145-.875a1.36 1.36 0 0 0-.43-.61q-.286-.225-.717-.225-.417 0-.703.216-.285.21-.435.597a2.5 2.5 0 0 0-.145.897q0 .514.15.905t.435.611q.29.22.698.22m5.067.817q-.72 0-1.248-.312a2.1 2.1 0 0 1-.813-.879q-.28-.571-.281-1.331 0-.756.277-1.332.281-.576.786-.896.51-.326 1.196-.326.418 0 .808.137.391.136.703.43.313.295.493.765.184.47.184 1.134v.343h-3.907v-.717h3.415l-.444.237q0-.452-.14-.8a1.17 1.17 0 0 0-.422-.54q-.277-.198-.69-.198a1.24 1.24 0 0 0-.708.198 1.3 1.3 0 0 0-.444.523 1.64 1.64 0 0 0-.153.712v.488q0 .505.175.857.176.351.488.536.317.184.734.184.273 0 .492-.079.224-.078.387-.237.162-.158.246-.391l.905.171a1.66 1.66 0 0 1-.386.695q-.277.298-.7.465a2.6 2.6 0 0 1-.953.163M50.088 13V8.087h.919v.787h.052q.137-.396.475-.624.343-.234.773-.233.088 0 .207.008.123.005.198.014v.914a2.444 2.444 0 0 0-.5-.053q-.34 0-.608.145a1.1 1.1 0 0 0-.417.391q-.15.246-.15.571V13zm7.15.101q-.69 0-1.208-.316a2.14 2.14 0 0 1-.8-.888q-.282-.57-.281-1.327 0-.765.28-1.336.287-.576.8-.892.52-.317 1.21-.317.693 0 1.208.317.513.316.8.892.285.57.285 1.336 0 .756-.286 1.327a2.14 2.14 0 0 1-.8.888q-.513.316-1.208.316m0-.804q.452 0 .747-.237a1.4 1.4 0 0 0 .435-.629q.145-.395.145-.861a2.5 2.5 0 0 0-.145-.87 1.4 1.4 0 0 0-.435-.633q-.294-.237-.747-.237-.448 0-.743.237-.29.237-.435.633a2.5 2.5 0 0 0-.145.87q0 .466.145.861.145.39.435.629.295.237.743.237m5.322-4.21v.769h-2.773v-.77zM60.543 13V7.516q0-.457.202-.76.206-.309.536-.458.335-.153.716-.153.295 0 .501.048t.304.083l-.229.774A2 2 0 0 0 62.402 7a1 1 0 0 0-.255-.026q-.348 0-.501.176-.154.171-.154.5V13zm6.82 0h-1.617v-.866h1.56q.747 0 1.244-.277a1.75 1.75 0 0 0 .742-.821q.246-.546.246-1.319 0-.768-.246-1.305a1.73 1.73 0 0 0-.725-.813q-.483-.28-1.2-.281h-1.656v-.866h1.718q.962 0 1.652.391t1.06 1.125q.368.73.369 1.75 0 1.023-.374 1.757a2.6 2.6 0 0 1-1.072 1.13q-.704.395-1.7.395M66.23 6.452V13h-.989V6.452zM72.347 13l-1.442-4.913h.984l.963 3.608h.053l.962-3.608h.989l.953 3.595h.049l.958-3.595h.984L76.36 13h-.971l-1.002-3.542h-.066L73.318 13zm7.413.105q-.465 0-.844-.17a1.4 1.4 0 0 1-.597-.51q-.22-.334-.22-.814 0-.417.158-.68.163-.27.435-.427.273-.159.607-.237.333-.08.685-.123.444-.049.717-.084t.395-.11q.127-.08.127-.25v-.022q0-.418-.237-.646-.233-.23-.694-.229-.48 0-.76.211a1.1 1.1 0 0 0-.383.47l-.9-.206q.161-.45.47-.72.312-.277.712-.405.403-.128.843-.128.295 0 .624.07.33.067.62.251.294.18.479.519.184.338.184.874V13h-.936v-.672h-.035q-.087.18-.277.36-.184.18-.474.299-.291.118-.699.118m.207-.764a1.4 1.4 0 0 0 .68-.154q.282-.158.431-.413t.15-.54v-.638a.5.5 0 0 1-.198.092 3 3 0 0 1-.33.075q-.184.03-.36.057l-.294.035a2.5 2.5 0 0 0-.506.123.86.86 0 0 0-.369.238.6.6 0 0 0-.136.409q0 .355.264.536.263.18.668.18M83.1 13V8.087h.918v.787h.053q.136-.396.475-.624.342-.234.773-.233.088 0 .207.008.123.005.197.014v.914a2.444 2.444 0 0 0-.5-.053q-.339 0-.607.145a1.1 1.1 0 0 0-.418.391q-.15.246-.149.571V13zm7.427-4.913L88.75 13h-1.028l-1.78-4.913h1.024l1.248 3.788h.053l1.24-3.788zm2.465 5.014q-.72 0-1.248-.312a2.1 2.1 0 0 1-.813-.879q-.28-.571-.281-1.331 0-.756.277-1.332.281-.576.786-.896.51-.326 1.196-.326.417 0 .808.137.39.136.703.43.312.295.492.765.185.47.185 1.134v.343H91.19v-.717h3.415l-.444.237q0-.452-.14-.8a1.17 1.17 0 0 0-.423-.54q-.276-.198-.69-.198a1.24 1.24 0 0 0-.707.198 1.3 1.3 0 0 0-.444.523 1.64 1.64 0 0 0-.154.712v.488q0 .505.176.857.176.351.488.536.316.184.734.184.272 0 .492-.079.224-.078.387-.237.162-.158.246-.391l.905.171a1.66 1.66 0 0 1-.387.695q-.276.298-.698.465a2.6 2.6 0 0 1-.954.163m6.447-3.81-.866.15a1.1 1.1 0 0 0-.312-.453q-.224-.207-.672-.207-.405 0-.677.185-.268.18-.268.461 0 .246.18.4.184.155.585.246l.786.176q.672.155 1.007.483.333.33.334.844 0 .444-.255.791-.255.344-.708.54-.453.195-1.046.194-.825 0-1.345-.356a1.5 1.5 0 0 1-.637-1.002l.919-.14q.087.36.356.545.272.184.703.184.466 0 .747-.198.285-.197.285-.479 0-.466-.694-.628l-.83-.185q-.69-.157-1.02-.496a1.2 1.2 0 0 1-.325-.862q0-.435.242-.764.246-.33.672-.51.43-.185.98-.185.8 0 1.252.348.457.347.607.918"/></g><defs><clipPath id="a"><path fill="#fff" d="M6 3h94.063v14H6z"/></clipPath></defs></svg>