<svg xmlns="http://www.w3.org/2000/svg" width="153" height="28" fill="none"><path fill="#E13F5E" d="M0 0h152.874v28H0z"/><g fill="#fff" clip-path="url(#a)"><path fill-rule="evenodd" d="M9 18.5c0 .829.649 1.5 1.45 1.5h3.544c3.184 0 5.839-2.624 5.88-5.919.043-3.347-2.568-6.077-5.795-6.077L10.45 8C9.649 8 9 8.671 9 9.5zm1.993-1.124h.186c.802 0 1.45-.671 1.45-1.5v-.193a.184.184 0 0 0-.182-.189h-1.454a.184.184 0 0 0-.183.189v1.505c0 .105.08.188.183.188m0-4.506h4.532c.801 0 1.45-.671 1.45-1.5v-.18a.193.193 0 0 0-.19-.198h-4.52c-.802 0-1.45.672-1.45 1.5v.19c0 .105.08.188.178.188m2.357 2.251h-2.357c-.098 0-.178-.083-.183-.189v-1.5c0-.106.08-.189.183-.189h3.625c.101 0 .182.083.182.189v.188c0 .83-.649 1.501-1.45 1.501" clip-rule="evenodd"/><path d="M28.536 18.14q-.98.001-1.7-.304a2.6 2.6 0 0 1-1.119-.885q-.405-.575-.451-1.365h1.324q.042.474.305.791.27.31.697.463.428.152.938.152.556 0 .996-.176.44-.175.685-.492.252-.323.252-.75a.9.9 0 0 0-.222-.633 1.6 1.6 0 0 0-.592-.404 6 6 0 0 0-.844-.287l-1.025-.281q-1.055-.282-1.664-.838-.61-.562-.61-1.47a2.2 2.2 0 0 1 .404-1.32 2.7 2.7 0 0 1 1.108-.872 3.8 3.8 0 0 1 1.576-.317q.89 0 1.565.317.68.31 1.072.855.398.54.416 1.236H30.37a1.26 1.26 0 0 0-.563-.937q-.486-.334-1.242-.334-.527 0-.926.17-.393.165-.61.457-.21.293-.21.674 0 .41.252.668.258.258.62.41.37.147.71.24l.85.229q.416.105.855.281.44.176.814.463.38.281.61.703.234.415.234 1.008 0 .732-.38 1.312-.382.575-1.102.909-.72.327-1.747.328m7.248-6.69v1.025h-3.575v-1.026zm-2.62-1.56h1.272v6.188q0 .451.187.662.188.205.604.205.1 0 .21-.011.118-.012.235-.036l.24 1.055q-.193.064-.421.1a3 3 0 0 1-.457.035q-.85 0-1.36-.475-.51-.48-.51-1.277zm5.432 8.25q-.621 0-1.125-.228a1.9 1.9 0 0 1-.797-.68q-.293-.444-.293-1.084 0-.555.211-.908.217-.357.58-.568t.809-.317.914-.164q.592-.065.955-.11.363-.048.527-.147.17-.105.17-.334v-.03q0-.556-.316-.861-.31-.305-.926-.305-.639 0-1.014.281a1.47 1.47 0 0 0-.51.627l-1.2-.275q.216-.598.626-.96.416-.37.95-.54a3.7 3.7 0 0 1 1.125-.17q.392 0 .832.094.44.088.826.334.392.24.639.691.246.452.246 1.166V18h-1.248v-.896h-.047q-.117.24-.37.48a2 2 0 0 1-.632.398 2.5 2.5 0 0 1-.932.159m.276-1.019q.533 0 .908-.205a1.5 1.5 0 0 0 .574-.55q.2-.341.2-.721v-.85a.7.7 0 0 1-.265.123 4 4 0 0 1-.439.1q-.246.04-.48.076-.235.03-.393.047a3.3 3.3 0 0 0-.674.164q-.305.105-.492.316-.182.206-.182.545 0 .474.352.715.351.24.89.24m4.177.879v-6.55h1.225v1.048h.07q.181-.527.633-.832.457-.31 1.031-.31.117 0 .276.011.164.006.263.018v1.219a3.267 3.267 0 0 0-.668-.07q-.45 0-.808.193-.352.187-.557.521-.2.329-.2.762V18zm4.114 0v-6.55h1.224v1.048h.07q.182-.527.633-.832.458-.31 1.031-.31.118 0 .276.011.164.006.264.018v1.219a3.264 3.264 0 0 0-.668-.07q-.451 0-.809.193a1.43 1.43 0 0 0-.557.521q-.2.329-.199.762V18zm6.697.135q-.961 0-1.664-.416a2.8 2.8 0 0 1-1.084-1.172q-.375-.762-.375-1.776 0-1.007.369-1.775.375-.768 1.049-1.195.68-.434 1.593-.434.557 0 1.079.182a2.6 2.6 0 0 1 .937.574q.416.393.656 1.02.246.627.246 1.511v.457h-5.209v-.955h4.553l-.592.317q0-.604-.187-1.067a1.56 1.56 0 0 0-.563-.72q-.368-.264-.92-.264-.55 0-.943.263a1.7 1.7 0 0 0-.592.698 2.2 2.2 0 0 0-.205.949v.65q0 .674.235 1.143t.65.715q.421.246.978.246.364 0 .657-.105.298-.105.515-.317.217-.21.328-.521l1.207.228q-.146.527-.515.926a2.5 2.5 0 0 1-.932.621 3.5 3.5 0 0 1-1.271.217m6.135-.006a2.54 2.54 0 0 1-1.418-.404q-.621-.411-.973-1.166-.352-.762-.352-1.817 0-1.065.358-1.822.357-.756.978-1.154a2.55 2.55 0 0 1 1.407-.399q.615 0 .984.205.375.2.58.469.21.27.322.475h.076V9.27h1.266V18h-1.236v-1.02h-.106a3.3 3.3 0 0 1-.328.475 1.9 1.9 0 0 1-.592.475q-.369.2-.966.199m.275-1.084q.551 0 .931-.293.381-.293.575-.814.2-.522.199-1.208 0-.685-.193-1.195a1.7 1.7 0 0 0-.575-.797q-.38-.287-.937-.287-.574 0-.955.299-.38.299-.574.815a3.3 3.3 0 0 0-.194 1.165q0 .657.194 1.184.193.522.574.826.387.305.955.305m10.078 1.084q-.592 0-.973-.2a1.9 1.9 0 0 1-.591-.474q-.211-.27-.329-.474h-.105V18h-1.23V9.27h1.265v3.246h.07q.118-.205.323-.475.21-.27.586-.469.375-.204.978-.205.791 0 1.406.399.62.398.979 1.154.357.756.357 1.822 0 1.055-.351 1.817-.352.755-.973 1.166-.614.404-1.412.404m-.275-1.084q.568 0 .949-.305.38-.304.574-.826.2-.527.2-1.184 0-.65-.194-1.165a1.8 1.8 0 0 0-.574-.815q-.382-.3-.955-.299-.557 0-.938.287a1.74 1.74 0 0 0-.58.797q-.193.51-.193 1.195 0 .686.199 1.207.2.522.58.815.386.293.932.293m4.5 3.404a2.4 2.4 0 0 1-.522-.04 1.4 1.4 0 0 1-.351-.1l.31-1.038.088.024q.487.123.82-.018.34-.134.569-.756l.158-.433-2.39-6.639h1.365l1.652 5.086h.07L78 11.45h1.366l-2.696 7.418a3 3 0 0 1-.474.867 1.8 1.8 0 0 1-.692.534 2.2 2.2 0 0 1-.931.181M85.664 18h-2.156v-1.154h2.08q.996 0 1.659-.37.66-.375.99-1.095.328-.727.328-1.758 0-1.025-.328-1.74a2.3 2.3 0 0 0-.967-1.084q-.645-.375-1.6-.375h-2.209V9.27h2.291q1.284 0 2.203.521a3.48 3.48 0 0 1 1.413 1.5q.492.973.492 2.332 0 1.366-.498 2.344a3.5 3.5 0 0 1-1.43 1.506q-.937.527-2.268.527m-1.511-8.73V18h-1.319V9.27zM92.309 18l-1.922-6.55H91.7l1.283 4.81h.07l1.283-4.81h1.319l1.271 4.792h.065l1.277-4.793h1.312L97.66 18h-1.295l-1.336-4.723h-.088L93.604 18zm9.885.14q-.621 0-1.125-.228a1.9 1.9 0 0 1-.797-.68q-.293-.444-.293-1.084 0-.555.211-.908.216-.357.58-.568a3 3 0 0 1 .808-.317q.446-.105.915-.164.59-.065.955-.11.363-.048.527-.147.17-.105.17-.334v-.03q0-.556-.317-.861-.31-.305-.925-.305-.639 0-1.014.281a1.5 1.5 0 0 0-.51.627l-1.201-.275q.218-.598.627-.96.416-.37.949-.54.54-.17 1.125-.17.393 0 .832.094a2.4 2.4 0 0 1 .826.334q.393.24.639.691.246.452.246 1.166V18h-1.248v-.896h-.047a1.7 1.7 0 0 1-.369.48q-.246.24-.633.398a2.5 2.5 0 0 1-.931.159m.275-1.019q.533 0 .908-.205.375-.21.575-.55a1.4 1.4 0 0 0 .199-.721v-.85a.7.7 0 0 1-.264.123 4 4 0 0 1-.439.1l-.481.076q-.234.03-.392.047-.37.053-.674.164-.305.105-.492.316-.182.206-.182.545 0 .474.351.715.352.24.891.24m4.178.879v-6.55h1.224v1.048h.071q.181-.527.633-.832a1.8 1.8 0 0 1 1.031-.31q.117 0 .275.011.164.006.264.018v1.219a3.27 3.27 0 0 0-.668-.07q-.451 0-.809.193-.352.187-.556.521-.2.329-.2.762V18zm9.902-6.55L114.182 18h-1.371l-2.373-6.55h1.365l1.664 5.05h.07l1.653-5.05zm3.287 6.685q-.96 0-1.664-.416a2.8 2.8 0 0 1-1.084-1.172q-.375-.762-.375-1.776 0-1.007.369-1.775.375-.768 1.049-1.195.68-.434 1.594-.434.556 0 1.078.182.522.18.938.574t.656 1.02q.246.627.246 1.511v.457h-5.209v-.955h4.553l-.592.317q0-.604-.188-1.067a1.56 1.56 0 0 0-.562-.72q-.37-.264-.92-.264-.551 0-.943.263a1.7 1.7 0 0 0-.592.698q-.205.433-.205.949v.65q0 .674.234 1.143t.651.715q.422.246.978.246.363 0 .656-.105.299-.105.516-.317.217-.21.328-.521l1.207.228a2.2 2.2 0 0 1-.516.926 2.5 2.5 0 0 1-.931.621 3.5 3.5 0 0 1-1.272.217m8.596-5.08-1.154.199a1.45 1.45 0 0 0-.416-.604q-.3-.275-.897-.275-.539 0-.902.246-.357.24-.358.615 0 .33.241.534.246.204.779.328l1.049.234q.896.206 1.342.645.444.44.445 1.125 0 .591-.34 1.054-.34.457-.943.721-.604.258-1.395.258-1.101 0-1.793-.475-.691-.475-.849-1.336l1.224-.187q.118.48.475.726.364.246.937.246.621 0 .996-.263.381-.264.381-.639 0-.62-.926-.838l-1.107-.246q-.92-.21-1.359-.662-.434-.458-.434-1.149 0-.58.322-1.019a2.1 2.1 0 0 1 .897-.68 3.3 3.3 0 0 1 1.306-.246q1.067 0 1.67.463.61.463.809 1.225M143.848 12.59a.51.51 0 0 0-.434-.338l-2.851-.226-1.233-2.73a.5.5 0 0 0-.455-.296.5.5 0 0 0-.456.295l-1.233 2.73-2.85.227a.502.502 0 0 0-.448.61.5.5 0 0 0 .138.246l2.107 2.054-.745 3.225a.498.498 0 0 0 .765.529l2.722-1.815 2.722 1.815a.5.5 0 0 0 .758-.553l-.914-3.2 2.268-2.04a.5.5 0 0 0 .139-.533"/></g><defs><clipPath id="a"><path fill="#fff" d="M9 4h134.874v20H9z"/></clipPath></defs></svg>