<svg xmlns="http://www.w3.org/2000/svg" width="74" height="20" fill="none"><rect width="73.063" height="20" fill="#E13F5E" rx="3"/><g fill="#fff" clip-path="url(#a)"><path fill-rule="evenodd" d="M6 13.75c0 .69.54 1.25 1.208 1.25h2.954c2.653 0 4.865-2.187 4.9-4.932.036-2.79-2.14-5.064-4.83-5.064L7.209 5C6.541 5 6 5.56 6 6.25zm1.66-.937h.156c.668 0 1.208-.559 1.208-1.25v-.16a.154.154 0 0 0-.152-.158H7.661a.154.154 0 0 0-.152.157v1.254c0 .088.067.157.152.157m0-3.754h3.778c.667 0 1.208-.56 1.208-1.25v-.15a.16.16 0 0 0-.16-.165H8.722c-.668 0-1.209.559-1.209 1.25v.157c0 .088.067.158.149.158m1.965 1.875H7.661c-.082 0-.149-.07-.152-.157v-1.25c0-.088.067-.158.152-.158h3.02c.085 0 .152.07.152.158v.157c0 .69-.54 1.25-1.208 1.25" clip-rule="evenodd"/><path d="M19.956 13V6.452h2.404q.695 0 1.152.229.456.228.68.62.23.385.23.87 0 .408-.155.69a1.2 1.2 0 0 1-.4.448 1.8 1.8 0 0 1-.553.246v.061q.33.018.641.211.312.193.515.55.206.35.206.86 0 .502-.237.902-.233.395-.72.628-.49.233-1.253.233zm.99-.844h1.423q.712 0 1.02-.277a.89.89 0 0 0 .307-.69q0-.312-.158-.566a1.1 1.1 0 0 0-.444-.413 1.44 1.44 0 0 0-.686-.154h-1.463zm0-2.87h1.326q.33 0 .598-.127.269-.128.422-.36a.97.97 0 0 0 .158-.55.9.9 0 0 0-.286-.676q-.281-.277-.865-.277h-1.354zm5.048 5.55a2 2 0 0 1-.39-.03 1 1 0 0 1-.264-.075l.233-.777.066.017q.364.093.615-.013.255-.1.426-.567l.119-.325-1.793-4.98h1.024l1.239 3.815h.053l1.243-3.814h1.024l-2.021 5.563a2.2 2.2 0 0 1-.356.65 1.35 1.35 0 0 1-.519.4q-.299.137-.699.137M34.314 13h-1.618v-.866h1.56q.747 0 1.244-.277a1.75 1.75 0 0 0 .742-.821q.247-.546.247-1.319 0-.768-.246-1.305a1.73 1.73 0 0 0-.726-.813q-.483-.28-1.2-.281h-1.656v-.866h1.718q.963 0 1.653.391t1.059 1.125q.369.73.369 1.75 0 1.023-.374 1.757-.369.735-1.072 1.13t-1.7.395m-1.135-6.548V13h-.988V6.452zM39.298 13l-1.442-4.913h.985l.962 3.608h.053l.962-3.608h.989l.954 3.595h.048l.958-3.595h.984L43.31 13h-.971l-1.002-3.542h-.066L40.268 13zm7.413.105q-.466 0-.843-.17a1.4 1.4 0 0 1-.598-.51q-.22-.334-.22-.814 0-.417.158-.68.163-.27.435-.427.273-.159.607-.237.334-.08.685-.123.444-.049.717-.084t.395-.11q.128-.08.128-.25v-.022q0-.418-.238-.646-.232-.23-.694-.229-.48 0-.76.211a1.1 1.1 0 0 0-.383.47l-.9-.206q.162-.45.47-.72.312-.277.712-.405.404-.128.843-.128.296 0 .624.07.33.067.62.251.294.18.48.519.183.338.184.874V13h-.936v-.672h-.035q-.089.18-.277.36-.185.18-.475.299-.29.118-.699.118m.207-.764a1.4 1.4 0 0 0 .681-.154q.282-.158.43-.413.15-.255.15-.54v-.638a.5.5 0 0 1-.198.092 3 3 0 0 1-.33.075q-.183.03-.36.057l-.294.035a2.5 2.5 0 0 0-.506.123.86.86 0 0 0-.369.238.6.6 0 0 0-.136.409q0 .355.264.536.264.18.668.18M50.05 13V8.087h.919v.787h.052q.137-.396.475-.624.342-.234.773-.233.088 0 .207.008.123.005.198.014v.914a2.444 2.444 0 0 0-.5-.053q-.34 0-.608.145a1.1 1.1 0 0 0-.417.391q-.15.246-.15.571V13zm7.427-4.913L55.702 13h-1.029l-1.78-4.913h1.024l1.248 3.788h.053l1.24-3.788zm2.465 5.014q-.72 0-1.248-.312a2.1 2.1 0 0 1-.813-.879q-.28-.571-.281-1.331 0-.756.277-1.332.281-.576.786-.896.51-.326 1.196-.326.418 0 .808.137.391.136.703.43.312.295.493.765.184.47.184 1.134v.343H58.14v-.717h3.415l-.444.237q0-.452-.14-.8a1.17 1.17 0 0 0-.422-.54q-.277-.198-.69-.198a1.24 1.24 0 0 0-.708.198 1.3 1.3 0 0 0-.444.523 1.64 1.64 0 0 0-.154.712v.488q.001.505.176.857.176.351.488.536.317.184.734.184.273 0 .492-.079.225-.078.387-.237t.246-.391l.905.171a1.66 1.66 0 0 1-.387.695q-.276.298-.698.465a2.6 2.6 0 0 1-.954.163m6.447-3.81-.866.15a1.1 1.1 0 0 0-.312-.453q-.224-.207-.672-.207-.404 0-.677.185-.268.18-.268.461 0 .246.18.4.185.155.585.246l.786.176q.673.155 1.007.483.334.33.334.844 0 .444-.255.791-.255.344-.708.54-.452.195-1.046.194-.826 0-1.344-.356a1.5 1.5 0 0 1-.638-1.002l.919-.14q.087.36.356.545.272.184.703.184.466 0 .747-.198.285-.197.286-.479 0-.466-.695-.628l-.83-.185q-.69-.157-1.02-.496a1.2 1.2 0 0 1-.325-.862q0-.435.242-.764.246-.33.672-.51.43-.185.98-.185.8 0 1.252.348.457.347.607.918"/></g><defs><clipPath id="a"><path fill="#fff" d="M6 3h61.063v14H6z"/></clipPath></defs></svg>