<svg xmlns="http://www.w3.org/2000/svg" width="153" height="28" fill="none"><path fill="#E13F5E" fill-opacity=".15" d="M0 0h152.875v28H0z"/><g clip-path="url(#a)"><path fill="#E13F5E" fill-rule="evenodd" d="M9 18.5c0 .829.649 1.5 1.45 1.5h3.544c3.184 0 5.839-2.624 5.88-5.919.043-3.347-2.568-6.077-5.795-6.077L10.45 8C9.649 8 9 8.671 9 9.5zm1.993-1.124h.186c.802 0 1.45-.671 1.45-1.5v-.193a.184.184 0 0 0-.182-.189h-1.454a.184.184 0 0 0-.183.189v1.505c0 .105.08.188.183.188m0-4.506h4.532c.801 0 1.45-.671 1.45-1.5v-.18a.193.193 0 0 0-.19-.198h-4.52c-.802 0-1.45.672-1.45 1.5v.19c0 .105.08.188.178.188m2.357 2.251h-2.357c-.098 0-.178-.083-.183-.189v-1.5c0-.106.08-.189.183-.189h3.625c.101 0 .182.083.182.189v.188c0 .83-.649 1.501-1.45 1.501" clip-rule="evenodd"/><path fill="#24292E" d="M25.946 18V9.27h5.42v1.13h-4.102v2.83h3.709v1.125h-3.709V18zm6.351 0v-6.55h1.225v1.048h.07q.182-.527.633-.832.457-.31 1.031-.31.117 0 .276.011.164.006.263.018v1.219a3.265 3.265 0 0 0-.668-.07q-.45 0-.808.193-.352.187-.557.521-.2.329-.2.762V18zm6.627.135q-.92 0-1.611-.422a2.85 2.85 0 0 1-1.067-1.184q-.375-.761-.375-1.77 0-1.019.375-1.78.381-.768 1.067-1.19.69-.422 1.611-.422.925 0 1.611.422.687.422 1.067 1.19.38.761.38 1.78 0 1.009-.38 1.77-.382.762-1.066 1.184-.687.422-1.612.422m0-1.073q.605 0 .996-.316.393-.316.58-.838.195-.527.194-1.148 0-.633-.194-1.16a1.85 1.85 0 0 0-.58-.844q-.392-.316-.996-.316-.597 0-.99.316-.387.316-.58.844a3.4 3.4 0 0 0-.194 1.16q0 .621.194 1.148.193.522.58.838.393.317.99.317m3.979.938v-6.55h1.213v1.077h.087q.206-.544.668-.85.47-.31 1.114-.31.656 0 1.095.31.445.306.663.85h.07q.234-.532.744-.843.51-.317 1.213-.317.89 0 1.459.563.568.555.568 1.681V18H50.52v-4.271q0-.669-.363-.961a1.32 1.32 0 0 0-.868-.3q-.621 0-.966.387-.34.382-.34.967V18h-1.278v-4.353q0-.534-.328-.856t-.861-.322a1.25 1.25 0 0 0-.674.193q-.304.187-.492.527-.182.334-.182.774V18zm15.709 0h-2.157v-1.154h2.08q.997 0 1.659-.37.661-.375.99-1.095.328-.727.328-1.758 0-1.025-.328-1.74a2.3 2.3 0 0 0-.967-1.084q-.645-.375-1.6-.375H56.41V9.27h2.29q1.283 0 2.204.521a3.48 3.48 0 0 1 1.412 1.5q.492.973.492 2.332 0 1.366-.498 2.344a3.5 3.5 0 0 1-1.43 1.506q-.937.527-2.267.527M57.1 9.27V18h-1.318V9.27zM65.256 18l-1.922-6.55h1.313l1.283 4.81H66l1.284-4.81h1.318l1.271 4.792h.065l1.277-4.793h1.313L70.606 18H69.31l-1.336-4.723h-.088L66.551 18zm9.885.14q-.622 0-1.125-.228a1.9 1.9 0 0 1-.797-.68q-.293-.444-.293-1.084 0-.555.211-.908.217-.357.58-.568t.809-.317a9 9 0 0 1 .914-.164q.592-.065.955-.11.363-.048.527-.147.17-.105.17-.334v-.03q0-.556-.316-.861-.31-.305-.926-.305-.639 0-1.014.281a1.47 1.47 0 0 0-.51.627l-1.2-.275q.216-.598.626-.96.416-.37.95-.54a3.7 3.7 0 0 1 1.124-.17q.393 0 .833.094.439.088.826.334.392.24.638.691.246.452.246 1.166V18h-1.248v-.896h-.046q-.118.24-.37.48a2 2 0 0 1-.632.398 2.5 2.5 0 0 1-.932.159m.275-1.019q.534 0 .909-.205a1.5 1.5 0 0 0 .574-.55q.2-.341.199-.721v-.85a.7.7 0 0 1-.264.123 4 4 0 0 1-.44.1q-.244.04-.48.076-.234.03-.392.047-.368.053-.674.164-.305.105-.492.316-.182.206-.182.545 0 .474.352.715.351.24.89.24m4.178.879v-6.55h1.225v1.048h.07q.181-.527.633-.832.456-.31 1.031-.31.117 0 .276.011.164.006.263.018v1.219a3.265 3.265 0 0 0-.668-.07q-.45 0-.808.193a1.43 1.43 0 0 0-.557.521q-.2.329-.2.762V18zm9.903-6.55L87.129 18h-1.37l-2.374-6.55h1.365l1.664 5.05h.07l1.653-5.05zm3.287 6.685q-.962 0-1.665-.416a2.8 2.8 0 0 1-1.084-1.172q-.374-.762-.374-1.776 0-1.007.369-1.775.375-.768 1.049-1.195.68-.434 1.593-.434.556 0 1.078.182.522.18.938.574t.656 1.02q.246.627.246 1.511v.457h-5.209v-.955h4.553l-.592.317q0-.604-.187-1.067a1.56 1.56 0 0 0-.563-.72q-.37-.264-.92-.264t-.943.263a1.7 1.7 0 0 0-.592.698q-.205.433-.205.949v.65q0 .674.234 1.143t.65.715q.422.246.98.246.362 0 .655-.105.3-.105.516-.317.217-.21.328-.521l1.207.228q-.146.527-.515.926a2.5 2.5 0 0 1-.932.621 3.5 3.5 0 0 1-1.271.217m8.595-5.08-1.154.199a1.44 1.44 0 0 0-.416-.604q-.3-.275-.897-.275-.539 0-.902.246-.357.24-.357.615 0 .33.24.534.246.204.78.328l1.048.234q.897.206 1.342.645t.445 1.125q0 .591-.34 1.054-.34.457-.943.721-.603.258-1.395.258-1.101 0-1.793-.475-.69-.475-.85-1.336l1.225-.187q.118.48.475.726.363.246.938.246.621 0 .996-.263.381-.264.381-.639-.001-.62-.926-.838l-1.108-.246q-.92-.21-1.359-.662-.435-.458-.434-1.149 0-.58.323-1.019.327-.44.896-.68a3.3 3.3 0 0 1 1.307-.246q1.065 0 1.67.463.609.463.808 1.225m5.52 4.945-2.414-8.73h1.383l1.699 6.761h.082l1.769-6.761h1.371l1.764 6.767h.088l1.693-6.767h1.395L113.297 18h-1.324l-1.834-6.533h-.07L108.235 18zm9.457 0v-6.55h1.265V18zm.639-7.559a.8.8 0 0 1-.569-.222.7.7 0 0 1-.234-.533q0-.317.234-.54a.8.8 0 0 1 .569-.222q.328 0 .562.222.24.224.24.54 0 .31-.24.533a.8.8 0 0 1-.562.222m4.892 1.008v1.026h-3.574v-1.026zm-2.619-1.558h1.271v6.187q0 .451.188.662.188.205.603.205.1 0 .211-.011.118-.012.235-.036l.24 1.055q-.194.064-.422.1a3 3 0 0 1-.457.035q-.849 0-1.359-.475-.51-.48-.51-1.277zm4.939 4.224V18h-1.265V9.27h1.248v3.257h.088q.228-.532.697-.843.474-.317 1.236-.317.674 0 1.178.276.504.275.785.826.288.55.287 1.37V18h-1.277v-4.008q0-.727-.375-1.125-.37-.398-1.031-.398-.458 0-.809.199-.351.193-.557.557-.204.363-.205.89"/><path fill="#E13F5E" d="m137.631 18.14-4.383-4.382a2.64 2.64 0 0 1-.697-1.219 2.8 2.8 0 0 1 0-1.389q.176-.69.697-1.2.534-.522 1.213-.692a2.7 2.7 0 0 1 1.366 0 2.6 2.6 0 0 1 1.218.691l.586.563.574-.563q.54-.521 1.219-.691a2.7 2.7 0 0 1 1.365 0q.686.17 1.213.691.522.51.698 1.201t0 1.39a2.57 2.57 0 0 1-.698 1.218z"/></g><defs><clipPath id="a"><path fill="#fff" d="M9 4h134.875v20H9z"/></clipPath></defs></svg>