<svg xmlns="http://www.w3.org/2000/svg" width="98" height="28" fill="none"><path fill="#E13F5E" fill-opacity=".15" d="M0 0h97.875v28H0z"/><g clip-path="url(#a)"><path fill="#E13F5E" fill-rule="evenodd" d="M9 18.5c0 .829.649 1.5 1.45 1.5h3.544c3.184 0 5.839-2.624 5.88-5.919.043-3.347-2.568-6.077-5.795-6.077L10.45 8C9.649 8 9 8.671 9 9.5zm1.993-1.124h.186c.802 0 1.45-.671 1.45-1.5v-.193a.184.184 0 0 0-.182-.189h-1.454a.184.184 0 0 0-.183.189v1.505c0 .105.08.188.183.188m0-4.506h4.532c.801 0 1.45-.671 1.45-1.5v-.18a.193.193 0 0 0-.19-.198h-4.52c-.802 0-1.45.672-1.45 1.5v.19c0 .105.08.188.178.188m2.357 2.251h-2.357c-.098 0-.178-.083-.183-.189v-1.5c0-.106.08-.189.183-.189h3.625c.101 0 .182.083.182.189v.188c0 .83-.649 1.501-1.45 1.501" clip-rule="evenodd"/><path fill="#24292E" d="M26.067 18V9.27h3.205q.926 0 1.535.304.61.305.908.826.305.515.305 1.16 0 .546-.205.92-.199.376-.533.598a2.4 2.4 0 0 1-.739.328v.082q.44.024.856.282.416.256.685.732.276.469.276 1.148 0 .668-.317 1.202-.31.526-.96.837t-1.67.311zm1.318-1.125h1.899q.948 0 1.359-.37.41-.368.41-.92 0-.414-.21-.755a1.47 1.47 0 0 0-.593-.55 1.9 1.9 0 0 0-.914-.206h-1.95zm0-3.826h1.77q.44 0 .796-.17.358-.17.563-.48.21-.317.211-.733 0-.54-.38-.902-.376-.37-1.155-.37h-1.805zm6.733 7.4a2.4 2.4 0 0 1-.522-.04 1.4 1.4 0 0 1-.351-.1l.31-1.038.088.024q.486.123.82-.018.34-.134.569-.756l.158-.433-2.39-6.639h1.364l1.653 5.086h.07l1.658-5.086h1.365l-2.695 7.418a3 3 0 0 1-.474.867 1.8 1.8 0 0 1-.692.534 2.2 2.2 0 0 1-.931.181M45.209 18h-2.156v-1.154h2.08q.996 0 1.658-.37.663-.375.99-1.095.33-.727.329-1.758 0-1.025-.328-1.74a2.3 2.3 0 0 0-.967-1.084q-.645-.375-1.6-.375h-2.209V9.27h2.291q1.284 0 2.203.521a3.48 3.48 0 0 1 1.413 1.5q.492.973.492 2.332 0 1.366-.498 2.344a3.5 3.5 0 0 1-1.43 1.506Q46.54 18 45.209 18m-1.511-8.73V18h-1.319V9.27zM51.854 18l-1.922-6.55h1.313l1.283 4.81h.07l1.283-4.81H55.2l1.271 4.792h.065l1.277-4.793h1.312L57.203 18H55.91l-1.336-4.723h-.088L53.149 18zm9.885.14q-.622 0-1.125-.228a1.9 1.9 0 0 1-.797-.68q-.293-.444-.293-1.084 0-.555.21-.908.218-.357.58-.568.365-.21.81-.317.444-.105.913-.164.592-.065.956-.11.362-.048.527-.147.17-.105.17-.334v-.03q0-.556-.317-.861-.31-.305-.925-.305-.639 0-1.014.281a1.47 1.47 0 0 0-.51.627l-1.201-.275q.218-.598.627-.96.416-.37.95-.54a3.7 3.7 0 0 1 1.124-.17q.394 0 .832.094.44.088.826.334.393.24.64.691.245.452.245 1.166V18H63.72v-.896h-.047q-.116.24-.369.48a2 2 0 0 1-.633.398 2.5 2.5 0 0 1-.931.159m.275-1.019q.533 0 .908-.205a1.5 1.5 0 0 0 .575-.55q.198-.341.199-.721v-.85a.7.7 0 0 1-.264.123 4 4 0 0 1-.44.1q-.245.04-.48.076-.234.03-.392.047a3.3 3.3 0 0 0-.674.164q-.305.105-.492.316-.183.206-.182.545 0 .474.351.715.353.24.891.24m4.178.879v-6.55h1.224v1.048h.07q.183-.527.633-.832.457-.31 1.032-.31.117 0 .275.011.164.006.264.018v1.219a3.264 3.264 0 0 0-.668-.07q-.45 0-.809.193a1.43 1.43 0 0 0-.556.521q-.2.329-.2.762V18zm9.902-6.55L73.727 18h-1.371l-2.373-6.55h1.365l1.664 5.05h.07l1.653-5.05zm3.287 6.685q-.96 0-1.664-.416a2.8 2.8 0 0 1-1.084-1.172q-.375-.762-.375-1.776 0-1.007.37-1.775.375-.768 1.048-1.195.68-.434 1.594-.434.556 0 1.078.182a2.6 2.6 0 0 1 .938.574q.416.393.656 1.02.246.627.246 1.511v.457h-5.21v-.955h4.554l-.592.317q0-.604-.188-1.067a1.56 1.56 0 0 0-.562-.72q-.37-.264-.92-.264t-.944.263a1.7 1.7 0 0 0-.591.698q-.205.433-.205.949v.65q0 .674.234 1.143t.65.715q.423.246.979.246.362 0 .656-.105.3-.105.516-.317a1.35 1.35 0 0 0 .328-.521l1.207.228q-.147.527-.516.926a2.5 2.5 0 0 1-.931.621 3.5 3.5 0 0 1-1.272.217m8.596-5.08-1.154.199a1.44 1.44 0 0 0-.416-.604q-.3-.275-.897-.275-.54 0-.902.246-.358.24-.358.615 0 .33.24.534.247.204.78.328l1.049.234q.896.206 1.341.645.446.44.446 1.125 0 .591-.34 1.054-.34.457-.943.721-.605.258-1.395.258-1.101 0-1.793-.475-.69-.475-.85-1.336l1.225-.187q.117.48.475.726.363.246.937.246.621 0 .996-.263.381-.264.381-.639 0-.62-.926-.838l-1.107-.246q-.92-.21-1.36-.662-.433-.458-.433-1.149 0-.58.322-1.019.328-.44.897-.68a3.3 3.3 0 0 1 1.306-.246q1.067 0 1.67.463.61.463.809 1.225"/></g><defs><clipPath id="a"><path fill="#fff" d="M9 4h79.875v20H9z"/></clipPath></defs></svg>