<svg xmlns="http://www.w3.org/2000/svg" width="115" height="20" fill="none"><rect width="114.063" height="20" fill="#F6F7F9" rx="3"/><g clip-path="url(#a)"><path fill="#E13F5E" fill-rule="evenodd" d="M6 13.75c0 .69.54 1.25 1.208 1.25h2.954c2.653 0 4.865-2.187 4.9-4.932.036-2.79-2.14-5.064-4.83-5.064L7.209 5C6.541 5 6 5.56 6 6.25zm1.66-.937h.156c.668 0 1.208-.559 1.208-1.25v-.16a.154.154 0 0 0-.152-.158H7.661a.154.154 0 0 0-.152.157v1.254c0 .088.067.157.152.157m0-3.754h3.778c.667 0 1.208-.56 1.208-1.25v-.15a.16.16 0 0 0-.16-.165H8.722c-.668 0-1.209.559-1.209 1.25v.157c0 .088.067.158.149.158m1.965 1.875H7.661c-.082 0-.149-.07-.152-.157v-1.25c0-.088.067-.158.152-.158h3.02c.085 0 .152.07.152.158v.157c0 .69-.54 1.25-1.208 1.25" clip-rule="evenodd"/><path fill="#24292E" d="M19.74 13V6.452h4.066V7.3h-3.077v2.123h2.782v.844h-2.782V13zm4.764 0V8.087h.919v.787h.052q.137-.396.475-.624.343-.234.773-.233.089 0 .207.008.123.005.198.014v.914a2.444 2.444 0 0 0-.5-.053q-.34 0-.608.145a1.1 1.1 0 0 0-.417.391q-.15.246-.15.571V13zm4.97.101q-.69 0-1.208-.316a2.14 2.14 0 0 1-.8-.888q-.28-.57-.281-1.327 0-.765.281-1.336.285-.576.8-.892.52-.317 1.208-.317.695 0 1.209.317.515.316.8.892.285.57.285 1.336 0 .756-.285 1.327a2.14 2.14 0 0 1-.8.888q-.515.316-1.209.316m0-.804q.453 0 .747-.237.295-.238.436-.629.144-.395.145-.861 0-.476-.145-.87a1.4 1.4 0 0 0-.436-.633q-.294-.237-.747-.237-.447 0-.742.237-.291.237-.435.633a2.5 2.5 0 0 0-.145.87q0 .466.145.861.144.39.435.629.294.237.742.237m2.984.703V8.087h.91v.809h.066a1.28 1.28 0 0 1 .5-.638q.353-.233.836-.233.492 0 .822.233.333.229.496.638h.053q.175-.4.558-.633a1.7 1.7 0 0 1 .91-.238q.668 0 1.094.422.426.418.426 1.262V13h-.958V9.796q0-.501-.272-.72a1 1 0 0 0-.65-.224q-.467 0-.726.29-.255.285-.255.725V13h-.958V9.735q0-.4-.246-.642-.247-.24-.646-.241a.94.94 0 0 0-.505.145 1.05 1.05 0 0 0-.37.395q-.136.25-.136.58V13zm11.782 0h-1.617v-.866h1.56q.747 0 1.244-.277a1.75 1.75 0 0 0 .742-.821q.246-.546.246-1.319 0-.768-.246-1.305a1.73 1.73 0 0 0-.725-.813q-.483-.28-1.2-.281h-1.656v-.866h1.718q.963 0 1.652.391.69.391 1.06 1.125.368.73.368 1.75 0 1.023-.373 1.757-.369.735-1.072 1.13t-1.7.395m-1.134-6.548V13h-.989V6.452zM49.223 13l-1.441-4.913h.984l.963 3.608h.053l.962-3.608h.989l.953 3.595h.049l.958-3.595h.984L53.236 13h-.971l-1.002-3.542h-.066L50.195 13zm7.414.105a2 2 0 0 1-.844-.17 1.4 1.4 0 0 1-.597-.51q-.22-.334-.22-.814 0-.417.158-.68.163-.27.435-.427.273-.159.607-.237a7 7 0 0 1 .685-.123q.444-.049.717-.084t.395-.11q.127-.08.127-.25v-.022q0-.418-.237-.646-.233-.23-.694-.229-.48 0-.76.211a1.1 1.1 0 0 0-.383.47l-.9-.206q.162-.45.47-.72.312-.277.711-.405.405-.128.844-.128.294 0 .624.07.33.067.62.251.294.18.479.519.184.338.184.874V13h-.936v-.672h-.035q-.087.18-.277.36-.184.18-.474.299-.29.118-.699.118m.207-.764a1.4 1.4 0 0 0 .68-.154q.282-.158.431-.413t.15-.54v-.638a.5.5 0 0 1-.198.092q-.145.045-.33.075-.184.03-.36.057-.175.023-.294.035a2.5 2.5 0 0 0-.506.123.86.86 0 0 0-.369.238.6.6 0 0 0-.136.409q0 .355.264.536.263.18.668.18m3.133.659V8.087h.918v.787h.053q.136-.396.475-.624.342-.234.773-.233.089 0 .207.008.123.005.197.014v.914A2.446 2.446 0 0 0 62.1 8.9q-.338 0-.606.145a1.1 1.1 0 0 0-.418.391q-.15.246-.149.571V13zm7.427-4.913L65.628 13H64.6l-1.78-4.913h1.024l1.248 3.788h.053l1.24-3.788zm2.465 5.014q-.72 0-1.248-.312a2.1 2.1 0 0 1-.813-.879q-.282-.571-.281-1.331 0-.756.276-1.332.282-.576.787-.896.51-.326 1.195-.326.418 0 .81.137.39.136.702.43.312.295.492.765.185.47.185 1.134v.343h-3.907v-.717h3.415l-.444.237q0-.452-.14-.8a1.17 1.17 0 0 0-.423-.54q-.276-.198-.69-.198a1.24 1.24 0 0 0-.707.198 1.3 1.3 0 0 0-.444.523 1.64 1.64 0 0 0-.154.712v.488q0 .505.176.857.176.351.488.536.315.184.734.184.272 0 .492-.079.224-.078.387-.237.162-.158.246-.391l.905.171a1.66 1.66 0 0 1-.387.695q-.276.298-.698.465a2.6 2.6 0 0 1-.954.163m6.447-3.81-.866.15a1.1 1.1 0 0 0-.312-.453q-.225-.207-.672-.207-.404 0-.677.185-.268.18-.268.461 0 .246.18.4.184.155.585.246l.786.176q.672.155 1.006.483.334.33.334.844 0 .444-.255.791a1.7 1.7 0 0 1-.707.54q-.453.195-1.046.194-.826 0-1.345-.356a1.5 1.5 0 0 1-.637-1.002l.919-.14q.087.36.356.545.272.184.703.184.466 0 .747-.198.285-.197.285-.479 0-.466-.694-.628l-.83-.185q-.69-.157-1.02-.496a1.2 1.2 0 0 1-.325-.862q0-.435.242-.764.246-.33.672-.51.43-.185.98-.185.8 0 1.252.348.457.347.607.918M80.456 13l-1.811-6.548h1.037l1.274 5.071h.062l1.327-5.07h1.028l1.323 5.075h.066l1.27-5.076h1.046L85.254 13h-.993l-1.375-4.9h-.053L81.457 13zm7.092 0V8.087h.95V13zm.48-5.669a.6.6 0 0 1-.427-.167.53.53 0 0 1-.176-.4q0-.237.176-.404a.6.6 0 0 1 .426-.167.6.6 0 0 1 .422.167.53.53 0 0 1 .18.404q0 .233-.18.4a.6.6 0 0 1-.422.167m3.669.756v.769h-2.681v-.77zm-1.965-1.169h.954v4.64q0 .34.14.497.141.154.453.154.075 0 .158-.009.089-.008.176-.026l.18.79a2.261 2.261 0 0 1-.66.101q-.636 0-1.018-.355-.383-.36-.383-.958zm3.705 3.168V13h-.95V6.452h.937v2.444h.066q.17-.4.523-.633.356-.238.927-.238.505 0 .883.207t.589.62q.215.413.215 1.028V13h-.958V9.994q0-.544-.281-.844-.277-.298-.773-.298-.343 0-.607.149a1.06 1.06 0 0 0-.417.417 1.34 1.34 0 0 0-.154.668"/><path fill="#E13F5E" d="m103.505 13.106-3.287-3.288a1.97 1.97 0 0 1-.523-.914 2.1 2.1 0 0 1 0-1.041q.132-.519.523-.901.399-.39.909-.519a2 2 0 0 1 1.024 0q.515.127.914.519l.44.422.43-.422q.405-.39.914-.519a2 2 0 0 1 1.024 0q.514.127.91.519.391.383.523.9.132.52 0 1.042-.127.518-.523.914z"/></g><defs><clipPath id="a"><path fill="#fff" d="M6 3h102.063v14H6z"/></clipPath></defs></svg>