<svg xmlns="http://www.w3.org/2000/svg" width="116" height="20" fill="none"><rect width="115.062" height="20" fill="#F6F7F9" rx="3"/><g clip-path="url(#a)"><path fill="#E13F5E" fill-rule="evenodd" d="M6 13.75c0 .69.54 1.25 1.208 1.25h2.954c2.653 0 4.865-2.187 4.9-4.932.036-2.79-2.14-5.064-4.83-5.064L7.209 5C6.541 5 6 5.56 6 6.25zm1.66-.937h.156c.668 0 1.208-.559 1.208-1.25v-.16a.154.154 0 0 0-.152-.158H7.661a.154.154 0 0 0-.152.157v1.254c0 .088.067.157.152.157m0-3.754h3.777c.668 0 1.209-.56 1.209-1.25v-.15a.16.16 0 0 0-.16-.165H8.72c-.667 0-1.208.559-1.208 1.25v.157c0 .088.067.158.149.158m1.965 1.875H7.661c-.082 0-.149-.07-.152-.157v-1.25c0-.088.067-.158.152-.158h3.02c.085 0 .152.07.152.158v.157c0 .69-.54 1.25-1.208 1.25" clip-rule="evenodd"/><path fill="#24292E" d="M21.808 13.106q-.734 0-1.274-.229a1.95 1.95 0 0 1-.84-.664 1.94 1.94 0 0 1-.338-1.023h.993q.03.355.229.593.202.232.523.347.32.114.703.114.417 0 .747-.132.329-.131.514-.369a.9.9 0 0 0 .189-.562.68.68 0 0 0-.167-.475 1.2 1.2 0 0 0-.444-.303 4.3 4.3 0 0 0-.633-.216l-.769-.21q-.79-.211-1.248-.629-.457-.422-.457-1.103 0-.566.303-.989.308-.422.83-.654a2.85 2.85 0 0 1 1.183-.238q.668 0 1.173.238.51.233.805.641.299.405.312.927h-.959a.94.94 0 0 0-.421-.703q-.365-.25-.932-.25-.396 0-.694.127a1.06 1.06 0 0 0-.457.343.84.84 0 0 0-.159.505q0 .308.19.501.193.195.465.308.277.11.532.18l.637.172q.312.079.642.21.33.132.61.348.286.21.458.527.175.312.175.756 0 .549-.285.984-.285.43-.826.681-.54.246-1.31.246m5.436-5.02v.77h-2.68v-.77zM25.28 6.919h.953v4.64q0 .34.14.497.142.154.453.154.075 0 .159-.009.088-.008.175-.026l.18.79a2.261 2.261 0 0 1-.66.101q-.635 0-1.018-.355-.382-.36-.382-.958zm4.073 6.187q-.465 0-.843-.17a1.4 1.4 0 0 1-.598-.51q-.22-.334-.22-.814 0-.417.159-.68.162-.27.434-.427.273-.159.607-.237.334-.08.686-.123.443-.049.716-.084t.395-.11q.128-.08.128-.25v-.022q0-.418-.238-.646-.232-.23-.694-.229-.48 0-.76.211a1.1 1.1 0 0 0-.382.47l-.901-.206q.162-.45.47-.72.312-.277.712-.405.404-.128.844-.128.294 0 .624.07.33.067.62.251.294.18.478.519.185.338.185.874V13h-.936v-.672h-.035q-.088.18-.277.36-.185.18-.475.299-.29.118-.699.118m.207-.764a1.4 1.4 0 0 0 .681-.154q.282-.158.43-.413.15-.255.15-.54v-.638a.5.5 0 0 1-.198.092q-.144.045-.33.075-.183.03-.36.057l-.294.035a2.5 2.5 0 0 0-.505.123.86.86 0 0 0-.37.238.6.6 0 0 0-.136.409q0 .355.264.536.264.18.668.18m3.133.659V8.087h.919v.787h.052q.137-.396.475-.624.343-.234.773-.233.09 0 .207.008.123.005.198.014v.914a2.444 2.444 0 0 0-.501-.053q-.339 0-.607.145a1.1 1.1 0 0 0-.417.391q-.15.246-.15.571V13zm3.085 0V8.087h.919v.787h.052q.137-.396.475-.624.343-.234.773-.233.088 0 .207.008.123.005.198.014v.914a2.444 2.444 0 0 0-.5-.053q-.34 0-.608.145a1.1 1.1 0 0 0-.417.391q-.15.246-.15.571V13zm5.023.101q-.72 0-1.248-.312a2.1 2.1 0 0 1-.813-.879q-.28-.571-.281-1.331 0-.756.277-1.332.281-.576.786-.896.51-.326 1.196-.326.417 0 .808.137.391.136.703.43.312.295.493.765.184.47.184 1.134v.343H39v-.717h3.415l-.444.237q0-.452-.14-.8a1.17 1.17 0 0 0-.422-.54q-.278-.198-.69-.198a1.24 1.24 0 0 0-.708.198 1.3 1.3 0 0 0-.444.523 1.64 1.64 0 0 0-.154.712v.488q.001.505.176.857.176.351.488.536.317.184.734.184.273 0 .492-.079.224-.078.387-.237.162-.158.246-.391l.905.171a1.66 1.66 0 0 1-.387.695q-.276.298-.698.465a2.6 2.6 0 0 1-.954.163m4.601-.004q-.598 0-1.063-.303a2.06 2.06 0 0 1-.73-.875q-.263-.57-.263-1.362 0-.801.268-1.367.268-.567.733-.866.467-.299 1.055-.299.462 0 .739.154.28.15.435.352.158.202.241.356h.057V6.452h.95V13h-.928v-.765h-.079a2.5 2.5 0 0 1-.246.356 1.5 1.5 0 0 1-.444.356q-.276.15-.725.15m.207-.813q.413 0 .698-.22t.431-.61q.15-.392.15-.906t-.145-.897a1.28 1.28 0 0 0-.431-.597 1.13 1.13 0 0 0-.703-.216q-.43 0-.717.225-.285.224-.43.61-.145.387-.145.875 0 .492.145.887.145.392.43.62.291.228.717.229m7.558.813q-.444 0-.73-.15a1.5 1.5 0 0 1-.443-.356 3 3 0 0 1-.246-.356h-.08V13h-.922V6.452h.95v2.435h.052q.089-.154.242-.356.158-.202.44-.352.28-.153.733-.154.594 0 1.055.3.465.298.733.865.27.567.269 1.367 0 .79-.264 1.362-.264.567-.73.874-.46.304-1.059.304m-.206-.813q.426 0 .712-.229.286-.228.43-.62.15-.395.15-.887 0-.488-.145-.875a1.36 1.36 0 0 0-.43-.61q-.286-.225-.717-.225-.418 0-.703.216-.286.21-.435.597a2.5 2.5 0 0 0-.145.897q0 .514.149.905.15.391.435.611.29.22.699.22m3.375 2.553a2 2 0 0 1-.391-.03 1 1 0 0 1-.264-.076l.233-.777.066.017q.365.093.615-.013.255-.1.426-.567l.119-.325-1.793-4.98h1.024l1.24 3.815h.052l1.244-3.814h1.024l-2.022 5.563a2.2 2.2 0 0 1-.356.65 1.35 1.35 0 0 1-.518.4q-.3.137-.7.137M64.655 13h-1.617v-.866h1.56q.747 0 1.243-.277a1.75 1.75 0 0 0 .743-.821q.246-.546.246-1.319 0-.768-.246-1.305a1.73 1.73 0 0 0-.725-.813q-.483-.28-1.2-.281h-1.657v-.866h1.719q.962 0 1.652.391t1.059 1.125q.37.73.37 1.75 0 1.023-.374 1.757-.37.735-1.073 1.13-.702.395-1.7.395M63.52 6.452V13h-.989V6.452zM69.638 13l-1.441-4.913h.984l.962 3.608h.053l.963-3.608h.988l.954 3.595h.048l.958-3.595h.985L73.65 13h-.97l-1.003-3.542h-.066L70.61 13zm7.414.105a2 2 0 0 1-.844-.17 1.4 1.4 0 0 1-.598-.51q-.22-.334-.22-.814 0-.417.159-.68.162-.27.435-.427.272-.159.606-.237.334-.08.686-.123.444-.049.716-.084t.396-.11q.126-.08.127-.25v-.022q0-.418-.237-.646-.233-.23-.695-.229-.478 0-.76.211a1.1 1.1 0 0 0-.382.47l-.901-.206q.162-.45.47-.72.312-.277.712-.405.404-.128.844-.128.294 0 .624.07.33.067.62.251.294.18.478.519.185.338.185.874V13h-.936v-.672h-.035q-.088.18-.277.36-.184.18-.475.299-.29.118-.698.118m.206-.764a1.4 1.4 0 0 0 .681-.154q.282-.158.431-.413t.15-.54v-.638a.5.5 0 0 1-.198.092 3 3 0 0 1-.33.075q-.184.03-.36.057-.177.023-.295.035a2.5 2.5 0 0 0-.505.123.86.86 0 0 0-.37.238.6.6 0 0 0-.136.409q0 .355.264.536.264.18.668.18m3.133.659V8.087h.919v.787h.053q.136-.396.474-.624.343-.234.774-.233.087 0 .206.008.123.005.198.014v.914a2.446 2.446 0 0 0-.501-.053q-.339 0-.606.145a1.1 1.1 0 0 0-.418.391q-.15.246-.15.571V13zm7.427-4.913L86.043 13h-1.029l-1.78-4.913h1.025l1.248 3.788h.052l1.24-3.788zm2.466 5.014q-.72 0-1.249-.312a2.1 2.1 0 0 1-.812-.879q-.282-.571-.282-1.331 0-.756.277-1.332.282-.576.787-.896.51-.326 1.195-.326.417 0 .809.137.39.136.703.43.312.295.492.765.184.47.184 1.134v.343h-3.906v-.717h3.414l-.444.237q0-.452-.14-.8a1.17 1.17 0 0 0-.422-.54q-.278-.198-.69-.198-.413 0-.707.198a1.3 1.3 0 0 0-.444.523 1.64 1.64 0 0 0-.154.712v.488q0 .505.176.857.176.351.487.536.317.184.734.184.273 0 .492-.079.225-.078.387-.237.163-.158.246-.391l.906.171a1.66 1.66 0 0 1-.387.695q-.278.298-.699.465a2.6 2.6 0 0 1-.953.163m6.446-3.81-.865.15a1.1 1.1 0 0 0-.312-.453q-.225-.207-.673-.207-.405 0-.676.185-.27.18-.269.461 0 .246.18.4.186.155.585.246l.787.176q.672.155 1.006.483.334.33.334.844 0 .444-.255.791a1.7 1.7 0 0 1-.707.54q-.453.195-1.046.194-.827 0-1.345-.356a1.5 1.5 0 0 1-.637-1.002l.918-.14q.089.36.356.545.273.184.703.184.466 0 .747-.198.286-.197.286-.479 0-.466-.694-.628l-.83-.185q-.69-.157-1.02-.496a1.2 1.2 0 0 1-.326-.862q0-.435.242-.764.246-.33.672-.51.432-.185.98-.185.8 0 1.253.348.458.347.606.918"/><path fill="url(#b)" d="M109.04 8.872a.4.4 0 0 0-.347-.27l-2.28-.182-.986-2.184a.402.402 0 0 0-.582-.172.4.4 0 0 0-.147.172l-.987 2.184-2.28.182a.399.399 0 0 0-.247.685l1.685 1.642-.596 2.58a.39.39 0 0 0 .162.42.4.4 0 0 0 .45.003l2.177-1.451 2.178 1.451a.398.398 0 0 0 .6-.202.4.4 0 0 0 .007-.24l-.732-2.56 1.814-1.632a.4.4 0 0 0 .111-.426"/></g><defs><linearGradient id="b" x1="96.517" x2="109.932" y1="12.805" y2="19.969" gradientUnits="userSpaceOnUse"><stop stop-color="#EB506D"/><stop offset="1" stop-color="#E13F5E"/></linearGradient><clipPath id="a"><path fill="#fff" d="M6 3h103.062v14H6z"/></clipPath></defs></svg>